<?xml version="1.0" encoding="UTF-8"?>
<svg id="_レイヤー_1" data-name="レイヤー 1" xmlns="http://www.w3.org/2000/svg" viewBox="0 0 233.6 87.89">
  <path d="m233.6,69.27c-2.46-.1-4.36-1-6.3-1.82-5.76-2.42-11.59-4.61-17.77-5.78-2.35-.44-4.61-1.36-6.97-1.75-5.21-.86-10.46-.82-15.71-.29-.79.08-1.58.37-2.32.68-2.35.98-4.68,2-7.01,3.02-.27.12-.71.21-.76.4-.28,1.17-1.24.94-2.04,1.14-.6.14-1.13.56-1.73.72-1.52.41-3.04.92-4.59,1.06-1.79.16-2.83-.71-3.36-2.43-.29-.94-.47-1.92-.73-3.04-.58.24-1.08.42-1.55.65-2.92,1.41-5.97,2.27-9.24,2.5-4.2.3-6.37-2.29-6.69-6-.12-1.45-.02-2.92-.02-4.35-2.97.71-6.03,1.55-9.13,2.16-4.24.84-8.51,1.46-12.75,2.29-1.2.24-2.34.85-3.5,1.31-2.26.89-4.52,1.8-6.79,2.67-.93.36-1.89.64-2.84.94-1.61.52-3.28.51-4.78-.19-1.98-.92-2.66-2.84-3.02-4.85-.13-.71-.02-1.46-.02-2.37-.46.17-.79.28-1.11.42-3.82,1.62-7.69,3.11-11.82,3.66-2.25.3-4.66.47-6.85-.01-2.75-.6-5.58-1.4-7.69-3.6-.81-.84-1.83-1.48-2.79-2.17-1.04-.74-2.12-.55-3.27-.14-1.7.6-3.42,1.16-5.17,1.54-.55.12-1.43-.25-1.84-.69-1.03-1.12-1.36-2.58-.95-4.02.17-.58.91-1.16,1.52-1.43,3.13-1.38,6.39-2.25,9.82-2.58,1.07-.1,2.11-.57,3.14-.94,1.32-.46,2.61-.98,3.92-1.49.48-.19.97-.36,1.4-.63,2.02-1.23,4-2.52,6.03-3.74,2.16-1.3,3.96-2.97,5.19-5.17.52-.93,1.15-1.24,2.14-1.06,1.13.2,2.28.44,2.46,1.81.16,1.2.17,2.43.14,3.64,0,.28-.39.73-.68.8-2.39.57-4.34,1.98-6.4,3.21-3.19,1.92-6.44,3.75-9.68,5.59-.36.2-.9.09-1.26.29-.78.43-1.51.97-2.26,1.47-.05.03-.06.13-.07.2-.13.77,1.84,2.93,2.65,2.93.18,0,.4-.02.52.08,2.54,1.97,5.54,2.18,8.54,2,7.1-.44,13.42-3.12,19.15-7.18,1.48-1.05,2.57-2.64,3.89-3.92.98-.95,2.27-1,3.08-.18.33.33.54.79.78,1.2.77,1.25.98,1.27,2.09.33,3.51-2.97,7.35-5.31,11.95-6.23,1.61-.32,2.91-.02,3.98,1.25,1.04,1.23,1.26,2.56.51,3.99-1.17,2.25-2.37,4.49-3.55,6.73-.13.25-.28.5-.61,1.06,1.54-.26,2.84-.39,4.09-.7,4.87-1.21,9.73-2.45,14.57-3.77.74-.2,1.47-.82,1.98-1.42,1.27-1.49,2.4-3.08,3.6-4.63.11-.14.33-.36.41-.33,1.22.53,1.31-.63,1.83-1.17,3.19-3.31,6.26-6.75,9.63-9.86,3.36-3.11,6.98-5.93,10.57-8.78,1.26-1,2.75-1.7,4.13-2.55.27-.17.58-.34.76-.59,1.08-1.47,3.33-2.16,4.31-1.14,1.58,1.65,2.19,3.04.45,5-.9,1.01-1.74,2.13-2.33,3.34-1.31,2.67-2.39,5.46-3.69,8.14-.45.93-1.29,1.67-1.94,2.51-.52.67-1.01,1.35-1.51,2.02-.24.32-.44.7-.73.96-2.98,2.65-5.91,5.49-9.54,7.14-3.77,1.7-7.51,3.68-11.75,4.16-.18.02-.37.05-.54.11-2.36.83-4.43,4.29-4.11,6.76.12.92.6,1.37,1.51,1.44,5.94.45,11.46-1.04,16.3-4.32,3.46-2.34,6.49-5.33,9.67-8.08,1.68-1.46,2.67-1.47,3.98.26.67.89,1.45,1.38,2.63,1.31,1.1-.07,2.22.03,3.32.1,1.91.12,3.52.81,4.53,2.57.32-.25.58-.46.96-.76.83,1.61-.22,2.98-.27,4.56,1.03.09,2.08.23,3.14.28,9.44.44,18.45,2.8,27.23,6.16,2,.77,3.98,1.59,5.98,2.34.72.26,1.5.39,2.26.51.82.13,1.27.54,1.27,1.39,0,1.1,0,2.19,0,3.39Zm-74.02-23.71c.23-.02.46.02.64-.05,6.35-2.38,12.41-5.22,16.54-10.92,1.57-2.17,3.1-4.38,4.53-6.64.52-.82.67-1.86,1.02-2.89-3.68.08-21.62,16.41-22.74,20.51Zm-44.45,4.55c-.4.35-.8.62-1.1.98-1.57,1.85-3.17,3.68-4.61,5.62-.3.41-.13,1.37.16,1.9.14.26,1.11.3,1.58.12,2.05-.81,4.05-1.73,6.07-2.6.21-.09.52-.01.7-.13.26-.16.44-.44.65-.67-.25-.2-.63-.63-.72-.57-.71.41-.84-.13-1.02-.55-.56-1.32-1.1-2.64-1.71-4.11Zm15.96-5.17c-.06-.1-.12-.21-.18-.31-.57.09-1.2.05-1.69.29-1.91.93-3.84,1.85-5.62,2.99-.81.52-1.36,1.51-1.91,2.36-.16.26-.06.9.17,1.15.75.83,2.77.94,3.54.15,1.72-1.77,3.36-3.6,5.01-5.43.3-.33.46-.8.68-1.2Zm39.82,15.82c.39.04.51.09.6.06,2.62-1,5.24-1.99,7.84-3.03.21-.08.43-.51.39-.74-.25-1.49-1.64-2.2-2.91-1.4-1.56.98-3.04,2.09-4.48,3.24-.55.44-.89,1.13-1.45,1.86Zm17.18-7.9c-.03-.19-.05-.38-.08-.56-.82.07-1.66.06-2.45.25-.22.05-.32.66-.55,1.17,1.33.01,2.34.01,3.07-.86ZM4.21,55.06c-1.1,1.66-2.26,3.27-3.26,4.99-.48.83-.82,1.84-.88,2.79-.14,1.95-.04,3.91-.05,5.86-.01,1.45.65,2.59,1.95,3.07,1.32.48,2.77.8,4.18.84,4.35.12,8.34-1.53,12.31-2.97,3.41-1.24,6.64-3,9.94-4.55,3.77-1.76,7.55-3.53,11.31-5.32,1.03-.49,1.97-1.42,3.03-1.54,1.83-.21,3.06-1.36,4.52-2.15,1.67-.91,3.31-1.86,5.27-2.96-3.24,6.29-6.35,12.32-9.46,18.34-.06-.43-.13-.95-.22-1.61-.45,1.1-.83,2.07-1.25,3.04-1.57,3.66-3.15,7.3-4.71,10.96-.45,1.06,1.53,3.98,2.71,4.03.14,0,.33,0,.43-.08.75-.61,1.51-1.23,2.23-1.88.25-.23.41-.56.64-.88.21.28.35.45.59.77,1.31-2.2,2.53-4.26,3.91-6.57-.91.42-1.51.78-2.15.98-1.03.32-1.41-.04-1.18-1.07.13-.57.29-1.15.53-1.68,1.62-3.47,3.22-6.96,4.91-10.39,3.44-6.99,7.41-13.66,12.29-19.76,1.19-1.49,2.64-2.8,3.67-4.39.95-1.47,2.09-2.65,3.45-3.67.22-.17.34-.48.51-.71.98-1.33,1.82-2.82,2.99-3.95,2.79-2.7,5.22-5.8,8.77-7.71,1.56-.84,2.87-2.2,4.18-3.45,1.28-1.22,3.28-1.51,4.16-3.22.05-.09.17-.14.26-.2,6.1-4.22,12.08-8.63,18.89-11.7,4.01-1.81,8.11-3.38,12.55-3.82,1.66-.16,3.31-.35,4.97-.41.91-.03,1.99.06,2.17,1.24.19,1.22.02,2.43-.83,3.44-.34.41-.65.84-1.11,1.44.63-.08,1.03-.19,1.42-.18,2.11.06,3.22-1.8,4.91-2.54.15-.07.23-.36.29-.57.92-3.33-1.34-6.52-4.79-6.77-3.36-.24-6.67-.3-10.04.37-2.34.47-4.63.81-6.68,2.1-.21.13-.49.16-.73.25-1.26.48-2.62.8-3.77,1.48-4.17,2.45-8.38,4.85-12.37,7.58-4.5,3.09-8.76,6.53-13.16,9.77-.68.5-1.65.61-2.35,1.09-.75.51-1.29,1.31-2,1.88-.34.28-.86.35-1.45.56.05-.51.04-.88.12-1.22.77-3.34.08-6.42-1.55-9.37-.53-.95-1.17-1.69-2.2-2.06-3.35-1.2-6.73-1.55-10.21-.54-2.62.77-4.98,2.02-7.24,3.53-2.53,1.7-4.21,3.98-4.98,6.93-1.17,4.44.53,9.49,4.54,11.7,1.81,1,3.74,1.42,5.77,1.06.44-.08.78-.73,1.16-1.11-.33-.26-.61-.64-.99-.76-1.82-.56-3.52-1.26-4.97-2.57-2.27-2.07-2.92-5.23-1.44-7.92,1.34-2.44,3.46-4.2,5.91-5.34,2.32-1.08,4.83-1.92,7.34-2.43,3.65-.74,7.43,2.29,6.67,7.39-.63,4.2-2.25,7.98-5.38,11.03-1.56,1.52-3.02,3.15-4.39,4.83-2.3,2.83-4.8,5.41-7.86,7.42-1.56,1.02-3.08,2.11-4.66,3.11-2.43,1.54-4.84,3.13-7.37,4.5-1.95,1.06-4.13,1.69-6.09,2.72-6.58,3.45-13.35,6.45-20.22,9.27-1.99.82-3.98,1.82-6.06,2.19-2.37.42-4.85.25-7.29.27-.29,0-.87-.42-.84-.57.31-1.7.72-3.39,1.1-5.08,0-.03.13-.03.28-.05.09.32.18.64.2.71,1.71-2.44,3.32-5.14,5.31-7.53,8.42-10.11,18.37-18.55,29.02-26.23,1.12-.81,1.91-2.09,2.87-3.14.2-.22.46-.41.72-.55.43-.23.97-.31,1.33-.61.87-.74,1.67-1.57,2.48-2.37.17-.17.26-.41.44-.71-1.94.69-3.77,1.15-5.42,1.97-1.74.87-3.39,1.97-4.93,3.17-5.25,4.08-10.46,8.21-15.62,12.39-5.87,4.75-11.26,9.99-16,15.88-.04.05-.13.06-.23.11-.08-.24-.15-.47-.28-.9-.25.34-.38.5-.5.68Z"/>
</svg>