<?xml version="1.0" encoding="UTF-8"?>
<svg id="_レイヤー_1" data-name="レイヤー 1" xmlns="http://www.w3.org/2000/svg" viewBox="0 0 491.05 491.05">
  <defs>
    <style>
      .cls-1 {
        fill: #ed7237;
      }

      .cls-1, .cls-2 {
        stroke-width: 2.83px;
      }

      .cls-1, .cls-2, .cls-3 {
        stroke: #231815;
        stroke-miterlimit: 10;
      }

      .cls-2 {
        fill: #ffe100;
      }

      .cls-3 {
        fill: #128132;
        stroke-width: 8.5px;
      }
    </style>
  </defs>
  <circle class="cls-1" cx="245.52" cy="245.52" r="244.11"/>
  <circle class="cls-1" cx="245.52" cy="245.52" r="229.93"/>
  <circle class="cls-2" cx="245.52" cy="245.52" r="215.76"/>
  <path class="cls-3" d="m146.3,271.75c-2.89-6.26-8.18-20.69-16.84-20.69-14.92,0-10.11,63.52-10.11,79.4,0,51.49,30.8,27.43,30.8,53.41,0,27.43-51.49,28.39-70.26,28.39-16.84,0-60.63-1.44-60.63-26.47,0-27.43,28.87-4.81,32.72-44.27,3.85-40.42,8.18-85.17,8.18-154.95,0-28.87-1.93-43.79-7.22-54.86-4.81-10.11-32.24-13.47-32.24-33.2,0-27.43,44.75-34.17,83.25-34.17,56.3,0,55.34,9.62,69.78,34.17,16.84,28.39,46.68,107.31,67.85,112.12,14.92,3.37,34.65-54.86,51.97-86.62,24.54-45.23,25.02-59.67,88.54-59.67,21.17,0,69.29,1.44,69.29,31.76,0,19.25-21.65,23.1-26.47,39.46-3.85,13.47-7.22,70.26-7.22,91.91,0,7.22,2.89,60.15,4.81,104.9,1.44,35.13,30.32,27.43,30.32,49.08,0,32.24-65.93,30.8-87.1,30.8-19.73,0-85.65,1.92-85.65-28.87,0-16.84,21.65-19.73,25.02-35.13,1.93-8.18,11.55-90.95-5.29-90.95-14.92,0-30.32,42.35-41.87,66.89-10.59,22.14-27.91,76.99-43.31,75.07-7.7-.96-11.55,0-40.42-64.96l-27.91-62.56Z"/>
</svg>