<?xml version="1.0" encoding="UTF-8"?>
<svg id="_レイヤー_1" data-name="レイヤー 1" xmlns="http://www.w3.org/2000/svg" viewBox="0 0 557.25 557.08">
  <defs>
    <style>
      .cls-1, .cls-2, .cls-3, .cls-4, .cls-5, .cls-6, .cls-7, .cls-8, .cls-9 {
        stroke: #231815;
        stroke-miterlimit: 10;
      }

      .cls-1, .cls-7, .cls-9 {
        stroke-width: 5.67px;
      }

      .cls-1, .cls-8 {
        fill: #fff000;
      }

      .cls-2 {
        fill: #128132;
      }

      .cls-2, .cls-3, .cls-4, .cls-5 {
        stroke-width: 2.83px;
      }

      .cls-3 {
        fill: #c79e62;
      }

      .cls-4 {
        fill: #e06309;
      }

      .cls-5 {
        fill: #fffac6;
      }

      .cls-6 {
        stroke-width: 2.83px;
      }

      .cls-6, .cls-7 {
        fill: #f7b52c;
      }

      .cls-8 {
        stroke-width: 1.42px;
      }

      .cls-9 {
        fill: none;
      }
    </style>
  </defs>
  <polygon class="cls-4" points="278.62 1.83 317.45 33.5 364.16 15.37 391.29 57.49 441.32 54.68 454.1 103.11 502.56 115.89 499.74 165.91 541.87 193.03 523.74 239.73 555.42 278.54 523.74 317.35 541.87 364.05 499.74 391.17 502.56 441.18 454.1 453.96 441.32 502.4 391.29 499.59 364.16 541.7 317.45 523.57 278.62 555.25 239.8 523.57 193.09 541.7 165.96 499.59 115.93 502.4 103.14 453.96 54.69 441.18 57.51 391.17 15.38 364.05 33.51 317.35 1.83 278.54 33.51 239.73 15.38 193.03 57.51 165.91 54.69 115.89 103.14 103.11 115.93 54.68 165.96 57.49 193.09 15.37 239.8 33.5 278.62 1.83"/>
  <circle class="cls-2" cx="278.62" cy="281.7" r="244.11"/>
  <circle class="cls-3" cx="278.62" cy="281.7" r="229.93"/>
  <circle class="cls-5" cx="278.62" cy="281.7" r="215.76"/>
  <g>
    <path class="cls-7" d="m136.49,193.3h287.82c23.59,0-27.37-71.72-145.33-71.72s-167.03,71.72-142.5,71.72Z"/>
    <path class="cls-7" d="m425,404.13c-24.54.09-264.23.96-287.82,1.04s27.53,44.9,145.49,44.47c117.96-.43,166.87-45.6,142.33-45.51Z"/>
    <path class="cls-6" d="m187,159.42s8.61-7.16,10.41-7.52,5.67-.48,6.36,2.89-2.94,4.13-4.05,4.63-12.72,0-12.72,0Z"/>
    <path class="cls-6" d="m243.07,135.41s-12.04,5.94-14.31,6.15-6.16.48-6.19-4.47,4.36-3.84,5.97-4.2,14.53,2.53,14.53,2.53Z"/>
    <path class="cls-6" d="m225.25,167.51s10.37-4.36,14.79-3.83,4.68,2.21,4.8,4.38-1.49,3.62-4,4.28-15.59-4.84-15.59-4.84Z"/>
    <path class="cls-6" d="m265.67,151.32s13.01-6.14,15.62-6.07,5.84.23,6.07,4.63c.23,4.39-3.23,4.67-6.07,4.34-2.84-.33-15.62-2.89-15.62-2.89Z"/>
    <path class="cls-6" d="m310.8,133.97s12.78-2.36,15.04-1.74,5.83,2.55,4.34,6.94-5.58,3.16-6.94,2.6-12.44-7.81-12.44-7.81Z"/>
    <path class="cls-6" d="m329.15,168.68s-13.21-.82-15.54-1.83-2.89-2.76-1.67-5.58,3.1-3.29,5.63-1.96,11.58,9.36,11.58,9.36Z"/>
    <path class="cls-6" d="m349.05,148.63s9.76.58,11.74,1.66,3.09,3.26.3,6.18-5.26,2.01-6.22.58-5.82-8.42-5.82-8.42Z"/>
    <g id="_文字" data-name="文字">
      <path class="cls-1" d="m95.16,190.06c-7.61,0-7.61,7.31-7.61,7.31v144.6s-1.66,13.52,5.2,13.52,6.59-14.22,6.59-14.22v-90.85l9.02,88.42s-.17,4.94,3.12,8.67c3.29,3.73,5.12-3.84,5.55-8.32s8.32-86.34,8.32-86.34v79.41s-.35,8.63,6.24,8.32c6.59-.3,6.59-8.67,6.59-8.67v-119.98s-1.35-9.12-8.67-10.06c-7.32-.93-9.68,8.04-9.68,8.04l-6.96,76.22c-3.72-34.32-7.45-79.39-9.71-89.46,0,0-.39-6.62-8-6.62Z"/>
      <path class="cls-1" d="m180.29,217.67s-2.43-4.36-7.49-6.78c-2.41-1.15-3.66-.85-6.21-1.16-2.97-.37-7.38.51-8.8,1.42-1.62,1.04-4.37,2.84-6.75,6.52-6.45,10-3.43,100.2-1.96,100.17,0,0,2.79,15.08,15.23,15.08s15.75-8.92,15.75-8.92c0,0,5.01-5.38,5.86-29.78.57-16.3.53-47.72-2.04-64.77-1.02-6.76-2.54-10.64-3.57-11.78Zm-8.76,91.87s-2.77,4.72-7.08,3.69c-4.31-1.02-4.31-5.23-4.31-5.23-2.39-3.58-1.66-72.08-1.04-74.21s2.5-4.86,6.89-4.86,7.06,4.24,7.12,5.88,2.29,69.45-1.58,74.72Z"/>
      <path class="cls-1" d="m206.46,219.9c-7.8.79-8.48,2.69-11.13,6.18-3.61,4.76-4.61,15.08-4.61,15.08-1.71,18.78-1.27,41.28,0,65.22.85,7.33,2.13,10.14,4.48,12.9s5.16,5.25,10.91,5.25,6.98-1.45,10.05-3.16c2.14-1.2,9.78-11.61,10.81-18.88.56-7.5.59-17.15-.52-18.88s-1.44-3.51-4.96-3.69c-3.51-.18-5.33,1.91-6.46,4s-.4,15.71-.92,16.92-1.47,4.48-4.92,5.23-5.52-4.1-5.78-5.01-1.45-44.17-.07-57.44c.3-2.85,1.54-6.33,5.85-6.46s5.23,5.23,5.23,5.23l.62,11.38s2.22,4.54,6.46,4,5.21-2.15,6.15-3.69.86-5.99,0-13.23c-1.02-8.54-5.1-13.9-7.38-16.61s-6.47-5.08-13.79-4.33Z"/>
      <path class="cls-1" d="m238.53,223.59c-3.45,0-4.69,2.95-5.54,4.92s.27,82.92.27,82.92c0,0,1.46,5.61,5.11,6.3s6.62-2.3,7.19-6.86c.38-3,.34-36.52.34-36.52h13.24l1.23,34.15s-.01,6.19,4.61,7.08,6.54-3.05,7.38-6.15c.68-2.49.1-78.46,0-76.61-.15,2.69.55-6.28-5.23-7.38s-6.89,4.24-7.38,6.46,0,28,0,28l-13.37-.33s-.54-25.7-.47-29.52-3.93-6.46-7.38-6.46Z"/>
      <path class="cls-1" d="m348.61,221.64c-5.94,0-6.71,6.46-6.71,6.46v70.15s-.25,2.36-3.08,2.77-3.69-4-3.69-4c0,0-.2-11.81-.13-13.6s-3.05-5.21-6.8-4.6-4.89,4.59-5.2,5.4-.2,11,.2,14.81,3.25,13.91,6.44,16.87c0,0,6.54,3.89,10.36,3.89s8.84-3.75,10.82-6.15,3.93-3.82,4.36-6.8c.49-3.41-.06-80.45-.06-80.45,0,0-.58-4.74-6.52-4.74Z"/>
      <path class="cls-1" d="m402.34,214.67c-5.67,1.33-5.67,8.93-5.67,8.93l12.92,99.99s1.1,10.15,8.61,10.15,8-7.08,8-7.08l12.31-106.76s1.88-11.49-4.92-12.61c-6.8-1.13-8.92,6.46-8.92,6.46l-7.08,65.53-8-59.38s-1.58-6.56-7.25-5.24Z"/>
      <path class="cls-1" d="m305.6,228.52c-.87-1.71-.56-3.55-7.54-3.55s-8.93,5.52-8.93,5.52l-13.8,76.81s-.42,6.13,4.42,8.29c4.84,2.15,8-2.77,8.31-4.92s2.87-19.16,2.87-19.16l12.76.29,4.07,19.17s2.08,6.67,6.77,6.77,6.56-4.38,6.15-9.23c-.49-5.84-12.29-74.51-15.08-79.99Zm-12.92,47.03s2.92-23.71,5.41-23.71,4.74,23.71,4.74,23.71h-10.15Z"/>
      <path class="cls-1" d="m387.14,222.3s-1.53-5.47-8.62-5.47-8.31,6.77-8.31,6.77l-13.84,83.99s-.77,11.29,5.45,12.2c6.23.91,7.47-8.2,7.47-8.2l4-18.81,11.69-.26,2.46,21.84s1.26,10.79,7.4,10.9c6.76.12,6-12.2,6-12.2l-13.7-90.75Zm-11.5,49.21s1.82-22.5,3.9-22.5,3.9,22.73,3.9,22.73l-7.8-.24Z"/>
      <path class="cls-1" d="m465.89,196.52s-1.59-7.16-7.87-7.16-9.05,8.7-9.05,8.7l-14.46,133.83s-.71,10.24,5.85,11.08c6.56.84,7.69-8,7.69-8l2.77-34.77,12.61,2.15,3.08,40.61s0,12.31,6.15,12.31,6.15-12.31,6.15-12.31l-12.92-146.45Zm-13,79.14s1.85-38.02,5.34-38.02,3.66,39.52,3.66,39.52l-9-1.5Z"/>
    </g>
    <polygon class="cls-7" points="145.6 347.13 415.46 347.13 415.46 359.83 146.13 359.83 145.6 347.13"/>
    <g>
      <path class="cls-8" d="m205.61,363.71v-29.89h4.28v10.54h.08c.48-.7,1.04-1.24,1.7-1.62.66-.38,1.41-.57,2.25-.57,1.04,0,1.84.18,2.41.55.57.36,1.04.83,1.41,1.39.28.45.46,1.04.55,1.76.08.73.13,1.86.13,3.4v8.1c0,1.18-.06,2.11-.17,2.81-.11.7-.29,1.29-.55,1.76-.73,1.34-1.97,2.02-3.74,2.02-1.06,0-1.88-.21-2.44-.63-.56-.42-1.11-.94-1.64-1.55v1.93h-4.28Zm8.52-14.74c0-.67-.15-1.26-.44-1.76-.29-.5-.85-.76-1.66-.76-.62,0-1.13.22-1.53.65-.41.43-.61.99-.61,1.66v8.27c0,.78.2,1.42.59,1.91.39.49.91.73,1.55.73.73,0,1.26-.27,1.6-.8.34-.53.5-1.23.5-2.1v-7.81Z"/>
      <path class="cls-8" d="m234.75,342.42v21.28h-4.28v-2.06h-.08c-.45.67-.99,1.22-1.62,1.66-.63.43-1.43.65-2.41.65-.53,0-1.06-.09-1.6-.27-.53-.18-1.01-.48-1.43-.9s-.76-.96-1.01-1.62c-.25-.66-.38-1.46-.38-2.41v-16.33h4.28v14.74c0,.78.18,1.4.55,1.85.36.45.88.67,1.55.67.81,0,1.37-.25,1.68-.76.31-.5.46-1.23.46-2.18v-14.32h4.28Z"/>
      <path class="cls-8" d="m238.28,363.71v-21.28h4.28v2.27c.87-.78,1.72-1.4,2.56-1.85.84-.45,1.87-.67,3.11-.67v4.53c-.42-.17-.85-.25-1.3-.25s-.93.08-1.45.23c-.52.15-.99.41-1.41.78-.45.36-.81.84-1.09,1.43-.28.59-.42,1.32-.42,2.18v12.64h-4.28Z"/>
      <path class="cls-8" d="m254.23,366.18c.03.5.23.98.61,1.43.38.45.93.67,1.66.67s1.2-.22,1.51-.65c.31-.43.46-.99.46-1.66v-4.2h-.08c-.48.7-1.04,1.24-1.7,1.62-.66.38-1.42.57-2.29.57-1.79,0-3.04-.67-3.74-2.02-.25-.48-.43-1.06-.55-1.76-.11-.7-.17-1.64-.17-2.81v-8.1c0-1.54.04-2.67.13-3.4.17-1.4.83-2.45,1.97-3.15.53-.36,1.33-.55,2.39-.55.53,0,.99.06,1.36.17s.72.27,1.03.46c.31.2.59.43.84.69.25.27.52.55.8.86v-1.93h4.28v23.89c0,.73-.12,1.46-.36,2.2-.24.74-.62,1.41-1.15,1.99-.53.62-1.2,1.11-2.02,1.49-.81.38-1.78.57-2.9.57-.64,0-1.32-.1-2.02-.31-.7-.21-1.34-.57-1.93-1.07-.62-.48-1.14-1.11-1.57-1.91-.43-.8-.72-1.83-.86-3.09h4.28Zm0-9.03c0,.67.15,1.26.44,1.76.29.5.85.76,1.66.76.62,0,1.13-.22,1.53-.65.41-.43.61-.99.61-1.66v-8.27c0-.78-.2-1.42-.59-1.91-.39-.49-.91-.73-1.55-.73-.73,0-1.26.27-1.6.8-.34.53-.5,1.23-.5,2.1v7.81Z"/>
      <path class="cls-8" d="m278.66,354.68h-8.48v2.9c0,.67.19,1.19.57,1.55.38.36.89.55,1.53.55.81,0,1.35-.24,1.62-.71.27-.48.43-.95.48-1.43h4.28c0,1.88-.57,3.39-1.72,4.53-.56.59-1.23,1.05-2.02,1.39-.78.34-1.67.5-2.65.5-1.34,0-2.48-.28-3.42-.84-.94-.56-1.66-1.3-2.16-2.23-.31-.56-.52-1.2-.63-1.93-.11-.73-.17-1.52-.17-2.39v-7.01c0-.87.06-1.66.17-2.39.11-.73.32-1.37.63-1.93.5-.92,1.22-1.66,2.16-2.23.94-.56,2.08-.84,3.42-.84.98,0,1.87.17,2.67.5.8.34,1.48.8,2.04,1.39,1.12,1.26,1.68,2.84,1.68,4.74v5.88Zm-8.48-3.36h4.2v-2.44c0-.81-.19-1.42-.57-1.83-.38-.41-.89-.61-1.53-.61s-1.15.2-1.53.61c-.38.41-.57,1.02-.57,1.83v2.44Z"/>
      <path class="cls-8" d="m281.81,363.71v-21.28h4.28v2.27c.87-.78,1.72-1.4,2.56-1.85.84-.45,1.87-.67,3.11-.67v4.53c-.42-.17-.85-.25-1.3-.25s-.93.08-1.45.23c-.52.15-.99.41-1.41.78-.45.36-.81.84-1.09,1.43-.28.59-.42,1.32-.42,2.18v12.64h-4.28Z"/>
      <path class="cls-8" d="m301.25,348.38c-.03-.73-.26-1.27-.69-1.64-.43-.36-.93-.55-1.49-.55-.67,0-1.19.22-1.55.65-.36.43-.55.93-.55,1.49,0,.39.1.78.29,1.15.2.38.7.72,1.51,1.03l2.52,1.01c1.6.62,2.69,1.46,3.3,2.52.6,1.06.9,2.23.9,3.48,0,.9-.16,1.73-.48,2.5-.32.77-.76,1.45-1.32,2.04-.56.59-1.23,1.05-2.02,1.39s-1.64.5-2.56.5c-1.74,0-3.19-.55-4.37-1.64-.59-.53-1.06-1.2-1.43-1.99-.36-.8-.56-1.73-.59-2.79h4.03c.08.59.29,1.13.61,1.64.32.5.89.76,1.7.76.62,0,1.17-.2,1.66-.61.49-.41.73-.97.73-1.7,0-.59-.15-1.09-.46-1.51s-.87-.78-1.68-1.09l-2.06-.76c-1.34-.5-2.4-1.25-3.17-2.25-.77-.99-1.16-2.2-1.16-3.63,0-.9.17-1.73.5-2.5.34-.77.8-1.43,1.39-1.99.56-.56,1.22-.99,1.97-1.28.76-.29,1.57-.44,2.44-.44s1.67.15,2.41.46c.74.31,1.38.74,1.91,1.3.53.56.95,1.22,1.26,1.99.31.77.46,1.59.46,2.46h-4.03Z"/>
      <path class="cls-8" d="m308.26,363.71v-29.89h4.28v10.66h.08c.45-.67.99-1.22,1.62-1.66.63-.43,1.43-.65,2.41-.65.53,0,1.06.09,1.6.27.53.18,1.01.48,1.43.9.42.42.76.96,1.01,1.62.25.66.38,1.46.38,2.41v16.33h-4.28v-14.74c0-.78-.18-1.4-.55-1.85-.36-.45-.88-.67-1.55-.67-.81,0-1.37.25-1.68.76-.31.5-.46,1.23-.46,2.18v14.32h-4.28Z"/>
      <path class="cls-8" d="m324.21,349.56c0-.87.06-1.66.17-2.39.11-.73.32-1.37.63-1.93.5-.92,1.22-1.66,2.16-2.23.94-.56,2.08-.84,3.42-.84s2.48.28,3.42.84c.94.56,1.66,1.3,2.16,2.23.31.56.52,1.2.63,1.93.11.73.17,1.53.17,2.39v7.01c0,.87-.06,1.67-.17,2.39-.11.73-.32,1.37-.63,1.93-.5.92-1.22,1.67-2.16,2.23-.94.56-2.08.84-3.42.84s-2.48-.28-3.42-.84c-.94-.56-1.66-1.3-2.16-2.23-.31-.56-.52-1.2-.63-1.93-.11-.73-.17-1.52-.17-2.39v-7.01Zm4.28,7.68c0,.81.19,1.42.57,1.83.38.41.89.61,1.53.61s1.16-.2,1.53-.61c.38-.41.57-1.01.57-1.83v-8.35c0-.81-.19-1.42-.57-1.83-.38-.41-.89-.61-1.53-.61s-1.15.2-1.53.61c-.38.41-.57,1.02-.57,1.83v8.35Z"/>
      <path class="cls-8" d="m340.12,372.31v-29.89h4.28v1.93c.53-.62,1.08-1.13,1.64-1.55.56-.42,1.37-.63,2.44-.63,1.76,0,3.01.67,3.74,2.02.25.48.43,1.06.55,1.76.11.7.17,1.64.17,2.81v8.1c0,1.57-.04,2.7-.13,3.4-.17,1.4-.81,2.45-1.93,3.15-.56.36-1.37.55-2.43.55-.84,0-1.59-.19-2.25-.57-.66-.38-1.22-.92-1.7-1.62h-.08v10.54h-4.28Zm8.52-22.96c0-.87-.17-1.57-.5-2.1-.34-.53-.87-.8-1.6-.8-.64,0-1.16.25-1.55.73-.39.49-.59,1.13-.59,1.91v8.27c0,.67.2,1.22.61,1.66.41.43.92.65,1.53.65.81,0,1.36-.25,1.66-.76.29-.5.44-1.09.44-1.76v-7.81Z"/>
    </g>
    <path class="cls-9" d="m141.33,378.06c4.01,5.31,10.39,12,18.19,11.94,10.11-.07,13.55-11.39,24.26-11.6,10.76-.21,13.17,11.09,24.8,11.6,12.35.55,16.4-11.88,28.58-11.17,11.05.64,12.78,11.18,23.43,11.43,11.4.28,14.64-11.66,26.08-11.48,11.08.18,13.27,11.47,24.52,11.79,11.68.33,15.26-11.67,26.86-11.17,10.52.46,12.26,10.54,22.64,10.81,11.15.3,14.61-11.18,25.43-10.64,9.74.48,12.47,10.06,21.62,10.13,7.14.06,12.96-5.71,16.53-10.13"/>
  </g>
</svg>