<?xml version="1.0" encoding="UTF-8"?>
<svg id="_レイヤー_1" data-name="レイヤー 1" xmlns="http://www.w3.org/2000/svg" viewBox="0 0 695.96 174.92">
  <defs>
    <style>
      .cls-1 {
        fill: #1c7c3b;
      }
    </style>
  </defs>
  <g>
    <path class="cls-1" d="m25.98,43.01c-.59-1.28-1.67-4.23-3.45-4.23-3.05,0-2.07,12.99-2.07,16.24,0,10.53,6.3,5.61,6.3,10.92,0,5.61-10.53,5.81-14.37,5.81-3.45,0-12.4-.3-12.4-5.41,0-5.61,5.91-.98,6.69-9.05.79-8.27,1.67-17.42,1.67-31.69,0-5.91-.39-8.96-1.48-11.22C5.91,12.3.3,11.61.3,7.58.3,1.97,9.45.59,17.32.59c11.52,0,11.32,1.97,14.27,6.99,3.45,5.81,9.55,21.95,13.88,22.93,3.05.69,7.09-11.22,10.63-17.72C61.12,3.54,61.22.59,74.21.59c4.33,0,14.17.3,14.17,6.5,0,3.94-4.43,4.72-5.41,8.07-.79,2.76-1.48,14.37-1.48,18.8,0,1.48.59,12.3.98,21.46.3,7.18,6.2,5.61,6.2,10.04,0,6.59-13.48,6.3-17.81,6.3-4.04,0-17.52.39-17.52-5.91,0-3.44,4.43-4.04,5.12-7.18.39-1.67,2.36-18.6-1.08-18.6-3.05,0-6.2,8.66-8.56,13.68-2.17,4.53-5.71,15.75-8.86,15.35-1.57-.2-2.36,0-8.27-13.29l-5.71-12.79Z"/>
    <path class="cls-1" d="m92.42,35.92C92.42,15.06,109.05.3,130.51.3c27.17,0,37.6,23.92,37.6,36.61,0,21.16-18.7,35.14-38.78,35.14s-36.91-15.16-36.91-36.12Zm33.56-20.96c-5.51,0-8.27,5.71-8.27,10.53,0,8.37,5.91,31.89,16.54,31.89,6,0,8.56-5.22,8.56-10.53,0-8.96-5.31-31.89-16.83-31.89Z"/>
    <path class="cls-1" d="m211.32.3c9.65,0,15.85,4.82,18.41,4.82,2.17,0,2.76-.69,4.43-.69,4.13,0,9.45,6.2,9.45,17.13,0,5.61-3.35,10.33-9.15,10.33-10.14,0-7.58-17.42-25.1-17.42-7.58,0-10.73,7.09-10.73,12.5,0,14.57,7.78,26.97,21.55,26.97,12.5,0,14.37-6.79,17.42-6.79,2.85,0,4.23,3.35,4.23,5.81,0,4.33-4.53,13.39-9.45,13.39-3.35,0-10.24,5.71-21.85,5.71-20.67,0-37.6-16.34-37.6-36.12S191.93.3,211.32.3Z"/>
    <path class="cls-1" d="m319.39,54.43c0,2.95.39,4.43,3.05,5.91,1.97,1.08,3.35,1.67,3.35,4.13s-.2,7.28-19.59,7.28c-4.33,0-16.93-.1-16.93-6.69-.39-7.58,6.89.79,6.89-19.19,0-5.32-1.18-5.12-6.1-5.12-13.78,0-12.5.39-12.5,9.25,0,13.48,6.1,8.07,6.1,14.47,0,6.89-14.37,7.28-19.09,7.28s-18.21-.39-18.21-7.09c0-2.07,1.48-3.35,3.15-4.13,3.54-1.67,4.82-1.38,4.82-21.95,0-26.18-.39-24.02-4.04-25.98-1.48-.79-3.25-1.67-3.25-3.64,0-7.58,16.44-8.37,21.95-8.37,4.13,0,15.55.49,15.55,6.4,0,3.05-1.67,4.13-3.94,5.51-2.46,1.38-3.05,2.56-3.05,11.32,0,5.51,2.56,4.82,7.28,4.82h5.02c6.5,0,6.3-.98,6.3-4.04,0-10.73-1.67-11.42-2.95-12.11-1.87-1.08-3.64-1.97-3.64-4.53,0-1.87-.39-7.38,19.19-7.38,4.63,0,17.72.1,17.72,6.99,0,2.17-1.08,3.64-3.05,4.63-2.95,1.28-4.04.98-4.04,16.63v25.59Z"/>
    <path class="cls-1" d="m347.93,35.14c3.05-6.79,7.09-15.45,7.09-23.23,0-6.79,3.15-11.91,11.91-11.91s13.98,8.76,17.81,15.26c1.67,2.85,16.54,32.97,20.08,41.04,3.25,7.48,8.56,2.95,8.56,8.56,0,7.18-13.98,6.89-18.9,6.89-14.07,0-22.54-.1-22.54-6.2,0-4.72,6-2.95,6-6.4,0-4.43-2.46-4.82-18.31-4.82-5.12,0-8.17.2-8.17,5.02,0,3.84,6.3,1.28,6.3,6.4,0,5.91-10.63,6-14.57,6-14.07,0-15.35-2.66-15.35-5.81,0-4.63,5.31-3.25,8.17-6.79,2.17-2.66,4.23-7.38,5.71-10.53l6.2-13.48Zm20.67,7.09c.98,0,3.94.2,3.94-1.28s-2.85-6.59-3.64-7.97c-.89-1.57-2.56-5.22-4.72-5.22-2.36,0-4.04,5.91-4.43,6.99-.39,1.08-2.07,4.92-2.07,6.1,0,1.67,2.46,1.38,3.54,1.38h7.38Z"/>
    <path class="cls-1" d="m468.9,49.21c-.59,20.87-22.24,22.83-27.76,22.83-11.42,0-28.44-4.72-28.44-18.8,0-6.4,4.43-11.81,11.02-11.81,5.71,0,11.42,3.54,11.42,9.74,0,1.67-.69,3.35-.69,4.63,0,2.46,1.97,3.84,4.33,3.64,11.61-1.18,6.1-21.26,6.89-38.98.49-10.92-8.86-5.12-8.86-11.71,0-1.87.79-8.17,19.98-8.17s20.77,4.53,20.77,7.28c0,5.12-7.68,2.76-7.87,11.02l-.79,30.31Z"/>
    <path class="cls-1" d="m493.41,35.14c3.05-6.79,7.09-15.45,7.09-23.23,0-6.79,3.15-11.91,11.91-11.91s13.98,8.76,17.81,15.26c1.67,2.85,16.54,32.97,20.08,41.04,3.25,7.48,8.56,2.95,8.56,8.56,0,7.18-13.98,6.89-18.9,6.89-14.07,0-22.54-.1-22.54-6.2,0-4.72,6-2.95,6-6.4,0-4.43-2.46-4.82-18.31-4.82-5.12,0-8.17.2-8.17,5.02,0,3.84,6.3,1.28,6.3,6.4,0,5.91-10.63,6-14.57,6-14.07,0-15.35-2.66-15.35-5.81,0-4.63,5.31-3.25,8.17-6.79,2.17-2.66,4.23-7.38,5.71-10.53l6.2-13.48Zm20.67,7.09c.98,0,3.94.2,3.94-1.28s-2.85-6.59-3.64-7.97c-.89-1.57-2.56-5.22-4.72-5.22-2.36,0-4.04,5.91-4.43,6.99-.39,1.08-2.07,4.92-2.07,6.1,0,1.67,2.46,1.38,3.54,1.38h7.38Z"/>
    <path class="cls-1" d="m593.01,63.19c-2.07,4.04-4.04,8.56-9.35,8.56-5.71,0-7.18-3.25-9.35-7.87l-19.59-43.31c-2.95-6.4-3.84-7.58-7.68-8.17-1.97-.3-2.95-1.77-2.95-3.84,0-7.58,15.65-7.97,20.67-7.97,20.67,0,19.88,4.92,19.88,6.4,0,3.74-4.72,3.94-4.72,6.59,0,2.07,3.84,9.74,6.2,14.86.89,1.67,1.97,5.51,4.13,5.61,3.25.2,4.92-5.32,6.1-7.38,1.18-2.36,5.71-11.22,5.71-13.58,0-3.54-5.02-2.56-5.02-6.5,0-6.1,12.4-6,16.34-6,12.4,0,14.47,2.26,14.47,5.71,0,2.66-1.97,3.94-4.33,4.23-4.23.49-4.63.2-8.37,7.78l-22.14,44.88Z"/>
    <path class="cls-1" d="m630.51,35.14c3.05-6.79,7.09-15.45,7.09-23.23,0-6.79,3.15-11.91,11.91-11.91s13.98,8.76,17.81,15.26c1.67,2.85,16.54,32.97,20.08,41.04,3.25,7.48,8.56,2.95,8.56,8.56,0,7.18-13.98,6.89-18.9,6.89-14.07,0-22.54-.1-22.54-6.2,0-4.72,6-2.95,6-6.4,0-4.43-2.46-4.82-18.31-4.82-5.12,0-8.17.2-8.17,5.02,0,3.84,6.3,1.28,6.3,6.4,0,5.91-10.63,6-14.57,6-14.07,0-15.35-2.66-15.35-5.81,0-4.63,5.31-3.25,8.17-6.79,2.17-2.66,4.23-7.38,5.71-10.53l6.2-13.48Zm20.67,7.09c.98,0,3.94.2,3.94-1.28s-2.85-6.59-3.64-7.97c-.89-1.57-2.56-5.22-4.72-5.22-2.36,0-4.04,5.91-4.43,6.99-.39,1.08-2.07,4.92-2.07,6.1,0,1.67,2.46,1.38,3.54,1.38h7.38Z"/>
  </g>
  <g>
    <path class="cls-1" d="m114.2,119.55c0,.41-.08,1.33.58,1.33.41,0,1.74-1.33,3.9-2.57,2.16-1.33,5.06-2.57,8.7-2.57,8.79,0,16.25,7.38,16.25,18.32,0,14.18-10.61,25.2-24.87,25.2-10.45,0-15.34-5.39-16.66-5.39s-2.65,1.24-5.39,1.24c-1.16,0-2.49-.33-2.49-1.66s1.66-3.98,1.66-14.76v-22.05c0-4.81-6.22-2.65-6.22-7.38,0-5.55,16.08-9.28,22.96-9.28,2.24,0,2.16,1.74,2.07,3.56l-.5,16Zm4.23,8.95c-3.65,0-4.06,2.98-4.06,5.8,0,16.08.91,17.41,4.23,17.41,5.47,0,6.38-6.22,6.38-10.45,0-3.9-1.08-12.77-6.55-12.77Z"/>
    <path class="cls-1" d="m170.08,140.19c0,3.32.25,8.46,4.73,8.46,5.97,0,5.14-7.79,5.14-11.77,0-2.74.08-6.3-.33-8.95-.66-4.15-4.73-2.74-4.73-6.22,0-4.89,16.66-5.72,19.81-5.72,2.98,0,4.23,1.74,4.23,4.64,0,2.65-.17,5.22-.17,7.88v16.66c0,4.97,4.56,2.65,4.56,6.63,0,5.64-14.67,7.21-19.23,7.21-6.38,0-2.16-4.97-5.47-4.97-.91,0-2.24,1.24-4.23,2.49-1.99,1.24-4.64,2.49-8.29,2.49-15.75,0-14.42-12.44-14.42-24.87s-5.72-7.13-5.72-12.6,20.89-5.55,21.55-5.55c2.32,0,2.57,1.08,2.57,3.15v21.06Z"/>
    <path class="cls-1" d="m210.62,132.98c0-8.12-5.14-3.56-5.14-8.62,0-6.55,19.4-8.37,20.14-8.37,3.15,0,3.23.83,3.56,3.65.08.99,0,2.9,1.41,2.9,1.99,0,3.23-6.55,10.36-6.55,5.55,0,9.2,4.14,9.2,9.62s-4.73,9.95-10.2,9.95-6.88-4.73-9.04-4.73c-2.32,0-1.91,5.55-1.91,7.05,0,2.49.25,5.97.66,9.12.5,3.65,6.8,1.41,6.8,6.38,0,5.22-7.29,5.64-16.41,5.64-3.81,0-15.09.17-15.09-5.55,0-3.48,3.81-3.48,4.73-6.38.66-2.07.91-6.8.91-9.12v-4.97Z"/>
    <path class="cls-1" d="m273.05,174.92c-15.34,0-21.14-5.8-21.14-11.11,0-4.81,4.56-4.89,4.56-6.13,0-1.08-4.48-3.4-4.48-7.05,0-5.89,6.72-7.63,6.72-8.79,0-.99-5.64-4.81-5.64-10.94,0-10.03,12.52-14.67,20.89-14.67,4.23,0,9.95,1.58,12.85,1.58,6.3,0,9.45-4.39,10.69-4.39,1.91,0,2.74,2.49,2.74,4.06,0,4.64-4.64,7.96-4.64,8.87,0,.83.25,1.74.25,2.57,0,11.19-13.02,15-22.13,15-1.41,0-2.82-.25-4.31-.25-1.41,0-2.24.91-2.24,2.24,0,2.57,3.65,3.07,5.55,3.07,2.57,0,12.19-1.41,15.5-1.41,8.62,0,12.27,4.89,12.27,9.86,0,7.46-7.13,17.49-27.44,17.49Zm.83-7.13c2.74,0,8.95-.41,8.95-4.23,0-1.74-1.66-2.49-3.23-2.49-1.24,0-4.48.5-7.13.5-1.91,0-6.38-.66-7.29-.66-.75,0-.99.75-.99,1.33,0,4.39,6.47,5.55,9.7,5.55Zm.5-45.51c-3.23,0-4.64,3.07-4.64,5.97,0,3.15.83,10.03,5.06,10.03,3.73,0,4.97-3.23,4.97-6.47,0-3.4-.75-9.53-5.39-9.53Z"/>
    <path class="cls-1" d="m322.96,139.03c-.91,0-2.24-.25-2.24,1.16,0,4.14,5.39,7.63,9.29,7.63,6.22,0,9.28-3.73,11.03-3.73s3.23,2.57,3.23,4.14c0,6.38-11.69,11.03-19.15,11.03-14.92,0-22.63-10.78-22.63-21.47,0-12.77,10.86-22.05,23.29-22.05,14.09,0,20.31,10.86,20.31,17.08,0,5.47-2.49,6.22-5.14,6.22h-17.99Zm7.21-10.45c0-2.98-1.82-5.31-4.89-5.31-2.74,0-4.97,2.82-4.97,5.47,0,2.98,2.82,2.32,4.97,2.32s4.89.5,4.89-2.49Z"/>
    <path class="cls-1" d="m353.72,132.98c0-8.12-5.14-3.56-5.14-8.62,0-6.55,19.4-8.37,20.15-8.37,3.15,0,3.23.83,3.56,3.65.08.99,0,2.9,1.41,2.9,1.99,0,3.23-6.55,10.36-6.55,5.55,0,9.2,4.14,9.2,9.62s-4.73,9.95-10.2,9.95-6.88-4.73-9.04-4.73c-2.32,0-1.91,5.55-1.91,7.05,0,2.49.25,5.97.66,9.12.5,3.65,6.8,1.41,6.8,6.38,0,5.22-7.29,5.64-16.41,5.64-3.81,0-15.09.17-15.09-5.55,0-3.48,3.81-3.48,4.73-6.38.66-2.07.91-6.8.91-9.12v-4.97Z"/>
    <path class="cls-1" d="m417.8,116.23c1.49.25,2.82.58,3.4.58.83,0,1.49-.25,2.24-.58.75-.25,1.49-.5,2.24-.5,3.81,0,7.63,7.63,7.63,11.03,0,2.24-1.91,3.9-4.06,3.9-4.73,0-7.38-6.55-11.03-6.55-1.49,0-2.98,1.24-2.98,2.82,0,5.31,18.24,6.3,18.24,19.15,0,7.79-7.54,13.18-16.17,13.18-1.66,0-4.06-.25-6.13-.58-2.07-.25-3.9-.5-4.39-.5-.58,0-1.08.08-1.66.17-.5.08-.99.17-1.58.17-1.66,0-2.49-.25-3.65-1.58-2.07-2.32-4.14-7.05-4.14-10.2,0-2.16.75-3.9,3.15-3.9,3.65,0,6.96,8.21,11.61,8.21,1.66,0,3.23-.83,3.23-2.65,0-4.89-16.25-5.47-16.25-19.15,0-8.29,6.8-13.51,15.34-13.51,1.66,0,3.4.17,4.97.5Z"/>
    <path class="cls-1" d="m489.6,145.74c0,7.05,4.06,5.31,4.06,8.54,0,4.81-10.61,4.73-13.68,4.73-2.57,0-12.6,0-12.6-4.23,0-2.4,2.32-2.32,2.98-6.55.5-2.65.58-5.55.58-8.29,0-4.14-.08-11.94-5.97-11.94-5.06,0-4.89,4.31-4.89,8.04v9.62c0,6.88,3.32,5.47,3.32,8.46,0,4.81-9.45,4.89-12.6,4.89-11.85,0-14.59-2.49-14.59-5.06,0-3.32,3.23-1.82,4.64-7.21.99-3.9.99-14.84.99-19.4,0-3.73-.25-7.54-.33-11.27-.17-5.89-5.14-3.81-5.14-7.71,0-6.63,21.55-8.37,21.64-8.37,2.49,0,2.65.75,2.65,3.15l-.5,15.75c-.08,1.58-.17,4.23,1.99,4.23,2.49,0,3.56-7.38,12.85-7.38,15.25,0,14.18,14.34,14.26,16.66l.33,13.35Z"/>
    <path class="cls-1" d="m495.98,138.94c0-14.84,13.02-23.21,26.69-23.21,14.51,0,22.8,11.36,22.8,21.64,0,13.6-14.59,21.89-26.78,21.89s-22.71-7.21-22.71-20.31Zm23.13-13.43c-2.74,0-4.23,2.57-4.06,4.97.33,5.22,1.82,17.99,7.54,18.32,3.15.17,3.81-2.49,3.81-5.14,0-3.73-1.66-18.15-7.29-18.15Z"/>
    <path class="cls-1" d="m554.26,141.68c0-8.7-.5-10.61-.91-11.03-1.08-1.08-5.55,0-5.55-4.73,0-5.64,17.08-9.95,23.21-9.95,1.99,0,2.32.66,2.32,2.49,0,.58.08,1.74.91,1.74,1.16,0,5.8-4.48,12.6-4.48,10.86,0,16.66,10.86,16.66,20.56,0,11.11-7.87,22.96-19.98,22.96-3.9,0-7.79-2.07-8.54-2.07-1.16,0-1.33,1.74-1.33,2.65,0,6.3,5.14,4.31,5.14,8.37,0,4.64-7.54,5.22-10.78,5.22-11.11,0-19.81-4.06-19.81-8.29,0-3.73,3.4-2.32,4.89-5.55.83-1.74,1.16-4.14,1.16-13.35v-4.56Zm22.71-13.68c-2.98,0-3.98,1.24-3.98,16.33,0,2.74,1.33,3.73,4.23,3.73,5.14,0,5.8-5.55,5.8-9.53s-.83-10.53-6.05-10.53Z"/>
  </g>
</svg>