<?xml version="1.0" encoding="UTF-8"?>
<svg id="_レイヤー_1" data-name="レイヤー 1" xmlns="http://www.w3.org/2000/svg" viewBox="0 0 461.84 101.33">
  <defs>
    <style>
      .cls-1 {
        fill: #edb033;
      }

      .cls-2 {
        fill: #1c7c3b;
      }
    </style>
  </defs>
  <g>
    <path class="cls-1" d="m17.03,29.01c-.39-.84-1.1-2.77-2.26-2.77-2,0-1.36,8.52-1.36,10.64,0,6.9,4.13,3.68,4.13,7.16,0,3.68-6.9,3.81-9.42,3.81-2.26,0-8.13-.19-8.13-3.55,0-3.68,3.87-.64,4.39-5.93.52-5.42,1.1-11.42,1.1-20.77,0-3.87-.26-5.87-.97-7.35C3.87,8.88.19,8.43.19,5.79.19,2.11,6.19,1.21,11.35,1.21c7.55,0,7.42,1.29,9.35,4.58,2.26,3.81,6.26,14.39,9.1,15.03,2,.45,4.65-7.35,6.97-11.61,3.29-6.06,3.35-8,11.87-8,2.84,0,9.29.19,9.29,4.26,0,2.58-2.9,3.1-3.55,5.29-.52,1.81-.97,9.42-.97,12.32,0,.97.39,8.06.65,14.06.19,4.71,4.06,3.68,4.06,6.58,0,4.32-8.84,4.13-11.68,4.13-2.64,0-11.48.26-11.48-3.87,0-2.26,2.9-2.64,3.36-4.71.26-1.1,1.55-12.19-.71-12.19-2,0-4.06,5.68-5.61,8.97-1.42,2.97-3.74,10.32-5.81,10.06-1.03-.13-1.55,0-5.42-8.71l-3.74-8.39Z"/>
    <path class="cls-1" d="m60.58,24.37c0-13.68,10.9-23.35,24.97-23.35,17.81,0,24.64,15.68,24.64,24,0,13.87-12.26,23.03-25.42,23.03s-24.19-9.93-24.19-23.68Zm22-13.74c-3.61,0-5.42,3.74-5.42,6.9,0,5.48,3.87,20.9,10.84,20.9,3.94,0,5.61-3.42,5.61-6.9,0-5.87-3.48-20.9-11.03-20.9Z"/>
    <path class="cls-1" d="m138.51,1.01c6.32,0,10.39,3.16,12.06,3.16,1.42,0,1.81-.45,2.9-.45,2.71,0,6.19,4.06,6.19,11.22,0,3.68-2.19,6.77-6,6.77-6.64,0-4.97-11.42-16.45-11.42-4.97,0-7.03,4.64-7.03,8.19,0,9.55,5.1,17.68,14.13,17.68,8.19,0,9.42-4.45,11.42-4.45,1.87,0,2.77,2.19,2.77,3.81,0,2.84-2.97,8.77-6.19,8.77-2.19,0-6.71,3.74-14.32,3.74-13.55,0-24.64-10.71-24.64-23.68S125.8,1.01,138.51,1.01Z"/>
    <path class="cls-1" d="m209.34,36.49c0,1.94.26,2.9,2,3.87,1.29.71,2.19,1.1,2.19,2.71s-.13,4.77-12.84,4.77c-2.84,0-11.1-.06-11.1-4.39-.26-4.97,4.52.52,4.52-12.58,0-3.48-.77-3.35-4-3.35-9.03,0-8.19.26-8.19,6.06,0,8.84,4,5.29,4,9.48,0,4.52-9.42,4.77-12.52,4.77s-11.94-.26-11.94-4.65c0-1.35.97-2.19,2.06-2.71,2.32-1.1,3.16-.9,3.16-14.39,0-17.16-.26-15.74-2.64-17.03-.97-.52-2.13-1.1-2.13-2.39,0-4.97,10.77-5.48,14.39-5.48,2.71,0,10.19.32,10.19,4.19,0,2-1.1,2.71-2.58,3.61-1.61.9-2,1.68-2,7.42,0,3.61,1.68,3.16,4.77,3.16h3.29c4.26,0,4.13-.64,4.13-2.64,0-7.03-1.1-7.48-1.94-7.93-1.23-.71-2.39-1.29-2.39-2.97,0-1.23-.26-4.84,12.58-4.84,3.03,0,11.61.06,11.61,4.58,0,1.42-.71,2.39-2,3.03-1.94.84-2.64.65-2.64,10.9v16.77Z"/>
    <path class="cls-1" d="m228.05,23.85c2-4.45,4.65-10.13,4.65-15.22,0-4.45,2.06-7.81,7.81-7.81s9.16,5.74,11.68,10c1.1,1.87,10.84,21.61,13.16,26.9,2.13,4.9,5.61,1.94,5.61,5.61,0,4.71-9.16,4.52-12.39,4.52-9.23,0-14.77-.06-14.77-4.06,0-3.1,3.94-1.94,3.94-4.19,0-2.9-1.61-3.16-12-3.16-3.35,0-5.35.13-5.35,3.29,0,2.52,4.13.84,4.13,4.19,0,3.87-6.97,3.94-9.55,3.94-9.23,0-10.06-1.74-10.06-3.81,0-3.03,3.48-2.13,5.35-4.45,1.42-1.74,2.77-4.84,3.74-6.9l4.06-8.84Zm13.55,4.64c.65,0,2.58.13,2.58-.84s-1.87-4.32-2.39-5.23c-.58-1.03-1.68-3.42-3.1-3.42-1.55,0-2.64,3.87-2.9,4.58-.26.71-1.35,3.23-1.35,4,0,1.1,1.61.9,2.32.9h4.84Z"/>
    <path class="cls-1" d="m307.34,33.08c-.39,13.68-14.58,14.97-18.19,14.97-7.48,0-18.64-3.1-18.64-12.32,0-4.19,2.9-7.74,7.23-7.74,3.74,0,7.48,2.32,7.48,6.39,0,1.1-.45,2.19-.45,3.03,0,1.61,1.29,2.52,2.84,2.39,7.61-.77,4-13.93,4.52-25.55.32-7.16-5.81-3.35-5.81-7.68,0-1.23.52-5.35,13.1-5.35s13.61,2.97,13.61,4.77c0,3.35-5.03,1.81-5.16,7.23l-.52,19.87Z"/>
    <path class="cls-1" d="m323.4,23.85c2-4.45,4.65-10.13,4.65-15.22,0-4.45,2.06-7.81,7.81-7.81s9.16,5.74,11.68,10c1.1,1.87,10.84,21.61,13.16,26.9,2.13,4.9,5.61,1.94,5.61,5.61,0,4.71-9.16,4.52-12.39,4.52-9.23,0-14.77-.06-14.77-4.06,0-3.1,3.94-1.94,3.94-4.19,0-2.9-1.61-3.16-12-3.16-3.35,0-5.35.13-5.35,3.29,0,2.52,4.13.84,4.13,4.19,0,3.87-6.97,3.94-9.55,3.94-9.23,0-10.06-1.74-10.06-3.81,0-3.03,3.48-2.13,5.35-4.45,1.42-1.74,2.77-4.84,3.74-6.9l4.06-8.84Zm13.55,4.64c.65,0,2.58.13,2.58-.84s-1.87-4.32-2.39-5.23c-.58-1.03-1.68-3.42-3.1-3.42-1.55,0-2.64,3.87-2.9,4.58-.26.71-1.35,3.23-1.35,4,0,1.1,1.61.9,2.32.9h4.84Z"/>
    <path class="cls-1" d="m388.69,42.24c-1.36,2.65-2.64,5.61-6.13,5.61-3.74,0-4.71-2.13-6.13-5.16l-12.84-28.39c-1.94-4.19-2.52-4.97-5.03-5.35-1.29-.19-1.94-1.16-1.94-2.52,0-4.97,10.26-5.23,13.55-5.23,13.55,0,13.03,3.23,13.03,4.19,0,2.45-3.1,2.58-3.1,4.32,0,1.36,2.52,6.39,4.06,9.74.58,1.1,1.29,3.61,2.71,3.68,2.13.13,3.23-3.48,4-4.84.77-1.55,3.74-7.35,3.74-8.9,0-2.32-3.29-1.68-3.29-4.26,0-4,8.13-3.93,10.71-3.93,8.13,0,9.48,1.48,9.48,3.74,0,1.74-1.29,2.58-2.84,2.77-2.77.32-3.03.13-5.48,5.1l-14.51,29.42Z"/>
    <path class="cls-1" d="m413.27,23.85c2-4.45,4.65-10.13,4.65-15.22,0-4.45,2.06-7.81,7.81-7.81s9.16,5.74,11.68,10c1.1,1.87,10.84,21.61,13.16,26.9,2.13,4.9,5.61,1.94,5.61,5.61,0,4.71-9.16,4.52-12.39,4.52-9.23,0-14.77-.06-14.77-4.06,0-3.1,3.94-1.94,3.94-4.19,0-2.9-1.61-3.16-12-3.16-3.35,0-5.35.13-5.35,3.29,0,2.52,4.13.84,4.13,4.19,0,3.87-6.97,3.94-9.55,3.94-9.23,0-10.06-1.74-10.06-3.81,0-3.03,3.48-2.13,5.35-4.45,1.42-1.74,2.77-4.84,3.74-6.9l4.06-8.84Zm13.55,4.64c.65,0,2.58.13,2.58-.84s-1.87-4.32-2.39-5.23c-.58-1.03-1.68-3.42-3.1-3.42-1.55,0-2.64,3.87-2.9,4.58-.26.71-1.35,3.23-1.35,4,0,1.1,1.61.9,2.32.9h4.84Z"/>
  </g>
  <g>
    <path class="cls-2" d="m22.7,28.19c-.39-.84-1.1-2.77-2.26-2.77-2,0-1.36,8.52-1.36,10.64,0,6.9,4.13,3.68,4.13,7.16,0,3.68-6.9,3.81-9.42,3.81-2.26,0-8.13-.19-8.13-3.55,0-3.68,3.87-.64,4.39-5.93.52-5.42,1.1-11.42,1.1-20.77,0-3.87-.26-5.87-.97-7.35-.65-1.36-4.32-1.81-4.32-4.45C5.86,1.29,11.86.39,17.02.39c7.55,0,7.42,1.29,9.35,4.58,2.26,3.81,6.26,14.39,9.1,15.03,2,.45,4.65-7.35,6.97-11.61,3.29-6.06,3.35-8,11.87-8,2.84,0,9.29.19,9.29,4.26,0,2.58-2.9,3.1-3.55,5.29-.52,1.81-.97,9.42-.97,12.32,0,.97.39,8.06.65,14.06.19,4.71,4.06,3.68,4.06,6.58,0,4.32-8.84,4.13-11.68,4.13-2.64,0-11.48.26-11.48-3.87,0-2.26,2.9-2.64,3.36-4.71.26-1.1,1.55-12.19-.71-12.19-2,0-4.06,5.68-5.61,8.97-1.42,2.97-3.74,10.32-5.81,10.06-1.03-.13-1.55,0-5.42-8.71l-3.74-8.39Z"/>
    <path class="cls-2" d="m66.25,23.55C66.25,9.87,77.15.19,91.21.19c17.81,0,24.64,15.68,24.64,24,0,13.87-12.26,23.03-25.42,23.03s-24.19-9.93-24.19-23.68Zm22-13.74c-3.61,0-5.42,3.74-5.42,6.9,0,5.48,3.87,20.9,10.84,20.9,3.94,0,5.61-3.42,5.61-6.9,0-5.87-3.48-20.9-11.03-20.9Z"/>
    <path class="cls-2" d="m144.18.19c6.32,0,10.39,3.16,12.06,3.16,1.42,0,1.81-.45,2.9-.45,2.71,0,6.19,4.06,6.19,11.22,0,3.68-2.19,6.77-6,6.77-6.64,0-4.97-11.42-16.45-11.42-4.97,0-7.03,4.64-7.03,8.19,0,9.55,5.1,17.68,14.13,17.68,8.19,0,9.42-4.45,11.42-4.45,1.87,0,2.77,2.19,2.77,3.81,0,2.84-2.97,8.77-6.19,8.77-2.19,0-6.71,3.74-14.32,3.74-13.55,0-24.64-10.71-24.64-23.68S131.47.19,144.18.19Z"/>
    <path class="cls-2" d="m215.01,35.67c0,1.94.26,2.9,2,3.87,1.29.71,2.19,1.1,2.19,2.71s-.13,4.77-12.84,4.77c-2.84,0-11.1-.06-11.1-4.39-.26-4.97,4.52.52,4.52-12.58,0-3.48-.77-3.35-4-3.35-9.03,0-8.19.26-8.19,6.06,0,8.84,4,5.29,4,9.48,0,4.52-9.42,4.77-12.52,4.77s-11.94-.26-11.94-4.65c0-1.35.97-2.19,2.06-2.71,2.32-1.1,3.16-.9,3.16-14.39,0-17.16-.26-15.74-2.64-17.03-.97-.52-2.13-1.1-2.13-2.39,0-4.97,10.77-5.48,14.39-5.48,2.71,0,10.19.32,10.19,4.19,0,2-1.1,2.71-2.58,3.61-1.61.9-2,1.68-2,7.42,0,3.61,1.68,3.16,4.77,3.16h3.29c4.26,0,4.13-.64,4.13-2.64,0-7.03-1.1-7.48-1.94-7.93-1.23-.71-2.39-1.29-2.39-2.97,0-1.23-.26-4.84,12.58-4.84,3.03,0,11.61.06,11.61,4.58,0,1.42-.71,2.39-2,3.03-1.94.84-2.64.65-2.64,10.9v16.77Z"/>
    <path class="cls-2" d="m233.72,23.03c2-4.45,4.65-10.13,4.65-15.22,0-4.45,2.06-7.81,7.81-7.81s9.16,5.74,11.68,10c1.1,1.87,10.84,21.61,13.16,26.9,2.13,4.9,5.61,1.94,5.61,5.61,0,4.71-9.16,4.52-12.39,4.52-9.23,0-14.77-.06-14.77-4.06,0-3.1,3.94-1.94,3.94-4.19,0-2.9-1.61-3.16-12-3.16-3.35,0-5.35.13-5.35,3.29,0,2.52,4.13.84,4.13,4.19,0,3.87-6.97,3.94-9.55,3.94-9.23,0-10.06-1.74-10.06-3.81,0-3.03,3.48-2.13,5.35-4.45,1.42-1.74,2.77-4.84,3.74-6.9l4.06-8.84Zm13.55,4.64c.65,0,2.58.13,2.58-.84s-1.87-4.32-2.39-5.23c-.58-1.03-1.68-3.42-3.1-3.42-1.55,0-2.64,3.87-2.9,4.58-.26.71-1.35,3.23-1.35,4,0,1.1,1.61.9,2.32.9h4.84Z"/>
    <path class="cls-2" d="m313.01,32.26c-.39,13.68-14.58,14.97-18.19,14.97-7.48,0-18.64-3.1-18.64-12.32,0-4.19,2.9-7.74,7.23-7.74,3.74,0,7.48,2.32,7.48,6.39,0,1.1-.45,2.19-.45,3.03,0,1.61,1.29,2.52,2.84,2.39,7.61-.77,4-13.93,4.52-25.55.32-7.16-5.81-3.35-5.81-7.68,0-1.23.52-5.35,13.1-5.35s13.61,2.97,13.61,4.77c0,3.35-5.03,1.81-5.16,7.23l-.52,19.87Z"/>
    <path class="cls-2" d="m329.07,23.03c2-4.45,4.65-10.13,4.65-15.22,0-4.45,2.06-7.81,7.81-7.81s9.16,5.74,11.68,10c1.1,1.87,10.84,21.61,13.16,26.9,2.13,4.9,5.61,1.94,5.61,5.61,0,4.71-9.16,4.52-12.39,4.52-9.23,0-14.77-.06-14.77-4.06,0-3.1,3.94-1.94,3.94-4.19,0-2.9-1.61-3.16-12-3.16-3.35,0-5.35.13-5.35,3.29,0,2.52,4.13.84,4.13,4.19,0,3.87-6.97,3.94-9.55,3.94-9.23,0-10.06-1.74-10.06-3.81,0-3.03,3.48-2.13,5.35-4.45,1.42-1.74,2.77-4.84,3.74-6.9l4.06-8.84Zm13.55,4.64c.65,0,2.58.13,2.58-.84s-1.87-4.32-2.39-5.23c-.58-1.03-1.68-3.42-3.1-3.42-1.55,0-2.64,3.87-2.9,4.58-.26.71-1.35,3.23-1.35,4,0,1.1,1.61.9,2.32.9h4.84Z"/>
    <path class="cls-2" d="m394.36,41.42c-1.36,2.65-2.64,5.61-6.13,5.61-3.74,0-4.71-2.13-6.13-5.16l-12.84-28.39c-1.94-4.19-2.52-4.97-5.03-5.35-1.29-.19-1.94-1.16-1.94-2.52,0-4.97,10.26-5.23,13.55-5.23,13.55,0,13.03,3.23,13.03,4.19,0,2.45-3.1,2.58-3.1,4.32,0,1.36,2.52,6.39,4.06,9.74.58,1.1,1.29,3.61,2.71,3.68,2.13.13,3.23-3.48,4-4.84.77-1.55,3.74-7.35,3.74-8.9,0-2.32-3.29-1.68-3.29-4.26,0-4,8.13-3.93,10.71-3.93,8.13,0,9.48,1.48,9.48,3.74,0,1.74-1.29,2.58-2.84,2.77-2.77.32-3.03.13-5.48,5.1l-14.51,29.42Z"/>
    <path class="cls-2" d="m418.94,23.03c2-4.45,4.65-10.13,4.65-15.22,0-4.45,2.06-7.81,7.81-7.81s9.16,5.74,11.68,10c1.1,1.87,10.84,21.61,13.16,26.9,2.13,4.9,5.61,1.94,5.61,5.61,0,4.71-9.16,4.52-12.39,4.52-9.23,0-14.77-.06-14.77-4.06,0-3.1,3.94-1.94,3.94-4.19,0-2.9-1.61-3.16-12-3.16-3.35,0-5.35.13-5.35,3.29,0,2.52,4.13.84,4.13,4.19,0,3.87-6.97,3.94-9.55,3.94-9.23,0-10.06-1.74-10.06-3.81,0-3.03,3.48-2.13,5.35-4.45,1.42-1.74,2.77-4.84,3.74-6.9l4.06-8.84Zm13.55,4.64c.65,0,2.58.13,2.58-.84s-1.87-4.32-2.39-5.23c-.58-1.03-1.68-3.42-3.1-3.42-1.55,0-2.64,3.87-2.9,4.58-.26.71-1.35,3.23-1.35,4,0,1.1,1.61.9,2.32.9h4.84Z"/>
  </g>
  <g>
    <path class="cls-1" d="m94.16,69.34c0,.24-.05.76.33.76.24,0,1-.76,2.25-1.48,1.24-.76,2.91-1.48,5.02-1.48,5.06,0,9.36,4.25,9.36,10.56,0,8.17-6.12,14.52-14.33,14.52-6.02,0-8.84-3.11-9.6-3.11s-1.53.72-3.11.72c-.67,0-1.43-.19-1.43-.96s.95-2.29.95-8.5v-12.71c0-2.77-3.58-1.53-3.58-4.25,0-3.2,9.27-5.35,13.23-5.35,1.29,0,1.24,1,1.19,2.05l-.29,9.22Zm2.44,5.16c-2.1,0-2.34,1.72-2.34,3.34,0,9.27.53,10.03,2.44,10.03,3.15,0,3.68-3.58,3.68-6.02,0-2.25-.62-7.36-3.77-7.36Z"/>
    <path class="cls-1" d="m126.36,81.24c0,1.91.14,4.87,2.72,4.87,3.44,0,2.96-4.49,2.96-6.78,0-1.58.05-3.63-.19-5.16-.38-2.39-2.72-1.58-2.72-3.58,0-2.82,9.6-3.3,11.42-3.3,1.72,0,2.44,1,2.44,2.68,0,1.53-.1,3.01-.1,4.54v9.6c0,2.87,2.63,1.53,2.63,3.82,0,3.25-8.46,4.16-11.08,4.16-3.68,0-1.24-2.87-3.15-2.87-.53,0-1.29.72-2.44,1.43-1.15.72-2.68,1.43-4.78,1.43-9.08,0-8.31-7.17-8.31-14.33s-3.3-4.11-3.3-7.26,12.04-3.2,12.42-3.2c1.34,0,1.48.62,1.48,1.82v12.14Z"/>
    <path class="cls-1" d="m149.73,77.08c0-4.68-2.96-2.05-2.96-4.97,0-3.77,11.18-4.83,11.61-4.83,1.82,0,1.86.48,2.05,2.1.05.57,0,1.67.81,1.67,1.15,0,1.86-3.77,5.97-3.77,3.2,0,5.3,2.39,5.3,5.54s-2.72,5.73-5.88,5.73-3.97-2.72-5.21-2.72c-1.34,0-1.1,3.2-1.1,4.06,0,1.43.14,3.44.38,5.26.29,2.1,3.92.81,3.92,3.68,0,3.01-4.2,3.25-9.46,3.25-2.2,0-8.7.1-8.7-3.2,0-2.01,2.2-2.01,2.72-3.68.38-1.19.53-3.92.53-5.26v-2.87Z"/>
    <path class="cls-1" d="m185.7,101.25c-8.84,0-12.18-3.34-12.18-6.4,0-2.77,2.63-2.82,2.63-3.54,0-.62-2.58-1.96-2.58-4.06,0-3.39,3.87-4.4,3.87-5.06,0-.57-3.25-2.77-3.25-6.31,0-5.78,7.21-8.46,12.04-8.46,2.44,0,5.73.91,7.41.91,3.63,0,5.45-2.53,6.16-2.53,1.1,0,1.58,1.43,1.58,2.34,0,2.68-2.68,4.59-2.68,5.11,0,.48.14,1,.14,1.48,0,6.45-7.5,8.65-12.76,8.65-.81,0-1.62-.14-2.48-.14-.81,0-1.29.53-1.29,1.29,0,1.48,2.1,1.77,3.2,1.77,1.48,0,7.02-.81,8.93-.81,4.97,0,7.07,2.82,7.07,5.69,0,4.3-4.11,10.08-15.81,10.08Zm.48-4.11c1.58,0,5.16-.24,5.16-2.44,0-1-.96-1.43-1.86-1.43-.72,0-2.58.29-4.11.29-1.1,0-3.68-.38-4.2-.38-.43,0-.57.43-.57.76,0,2.53,3.73,3.2,5.59,3.2Zm.29-26.23c-1.86,0-2.68,1.77-2.68,3.44,0,1.82.48,5.78,2.91,5.78,2.15,0,2.87-1.86,2.87-3.73,0-1.96-.43-5.49-3.11-5.49Z"/>
    <path class="cls-1" d="m214.47,80.57c-.53,0-1.29-.14-1.29.67,0,2.39,3.11,4.4,5.35,4.4,3.58,0,5.35-2.15,6.35-2.15s1.86,1.48,1.86,2.39c0,3.68-6.74,6.35-11.04,6.35-8.6,0-13.04-6.21-13.04-12.37,0-7.36,6.26-12.71,13.42-12.71,8.12,0,11.71,6.26,11.71,9.84,0,3.15-1.43,3.58-2.96,3.58h-10.37Zm4.16-6.02c0-1.72-1.05-3.06-2.82-3.06-1.58,0-2.87,1.62-2.87,3.15,0,1.72,1.62,1.34,2.87,1.34s2.82.29,2.82-1.43Z"/>
    <path class="cls-1" d="m232.19,77.08c0-4.68-2.96-2.05-2.96-4.97,0-3.77,11.18-4.83,11.61-4.83,1.82,0,1.86.48,2.05,2.1.05.57,0,1.67.81,1.67,1.15,0,1.86-3.77,5.97-3.77,3.2,0,5.3,2.39,5.3,5.54s-2.72,5.73-5.88,5.73-3.97-2.72-5.21-2.72c-1.34,0-1.1,3.2-1.1,4.06,0,1.43.14,3.44.38,5.26.29,2.1,3.92.81,3.92,3.68,0,3.01-4.2,3.25-9.46,3.25-2.2,0-8.7.1-8.7-3.2,0-2.01,2.2-2.01,2.72-3.68.38-1.19.53-3.92.53-5.26v-2.87Z"/>
    <path class="cls-1" d="m269.12,67.43c.86.14,1.62.33,1.96.33.48,0,.86-.14,1.29-.33.43-.14.86-.29,1.29-.29,2.2,0,4.4,4.4,4.4,6.35,0,1.29-1.1,2.25-2.34,2.25-2.72,0-4.25-3.77-6.35-3.77-.86,0-1.72.72-1.72,1.62,0,3.06,10.51,3.63,10.51,11.04,0,4.49-4.35,7.6-9.32,7.6-.96,0-2.34-.14-3.54-.33-1.19-.14-2.25-.29-2.53-.29-.33,0-.62.05-.96.1-.29.05-.57.1-.91.1-.96,0-1.43-.14-2.1-.91-1.19-1.34-2.39-4.06-2.39-5.88,0-1.24.43-2.25,1.82-2.25,2.1,0,4.01,4.73,6.69,4.73.96,0,1.86-.48,1.86-1.53,0-2.82-9.36-3.15-9.36-11.04,0-4.78,3.92-7.79,8.84-7.79.96,0,1.96.1,2.87.29Z"/>
    <path class="cls-1" d="m310.5,84.44c0,4.06,2.34,3.06,2.34,4.92,0,2.77-6.12,2.72-7.88,2.72-1.48,0-7.26,0-7.26-2.44,0-1.39,1.34-1.34,1.72-3.77.29-1.53.33-3.2.33-4.78,0-2.39-.05-6.88-3.44-6.88-2.91,0-2.82,2.48-2.82,4.63v5.54c0,3.97,1.91,3.15,1.91,4.87,0,2.77-5.45,2.82-7.26,2.82-6.83,0-8.41-1.43-8.41-2.91,0-1.91,1.86-1.05,2.68-4.16.57-2.25.57-8.55.57-11.18,0-2.15-.14-4.35-.19-6.5-.1-3.39-2.96-2.2-2.96-4.44,0-3.82,12.42-4.83,12.47-4.83,1.43,0,1.53.43,1.53,1.82l-.29,9.08c-.05.91-.1,2.44,1.15,2.44,1.43,0,2.05-4.25,7.41-4.25,8.79,0,8.17,8.27,8.22,9.6l.19,7.69Z"/>
    <path class="cls-1" d="m314.18,80.52c0-8.55,7.5-13.38,15.38-13.38,8.36,0,13.14,6.55,13.14,12.47,0,7.84-8.41,12.61-15.43,12.61s-13.09-4.16-13.09-11.71Zm13.33-7.74c-1.58,0-2.44,1.48-2.34,2.87.19,3.01,1.05,10.37,4.35,10.56,1.82.1,2.2-1.43,2.2-2.96,0-2.15-.96-10.46-4.2-10.46Z"/>
    <path class="cls-1" d="m347.77,82.1c0-5.02-.29-6.12-.53-6.35-.62-.62-3.2,0-3.2-2.72,0-3.25,9.84-5.73,13.38-5.73,1.15,0,1.34.38,1.34,1.43,0,.33.05,1,.53,1,.67,0,3.34-2.58,7.26-2.58,6.26,0,9.6,6.26,9.6,11.85,0,6.4-4.54,13.23-11.51,13.23-2.25,0-4.49-1.19-4.92-1.19-.67,0-.76,1-.76,1.53,0,3.63,2.96,2.48,2.96,4.83,0,2.68-4.35,3.01-6.21,3.01-6.4,0-11.42-2.34-11.42-4.78,0-2.15,1.96-1.34,2.82-3.2.48-1,.67-2.39.67-7.69v-2.63Zm13.09-7.88c-1.72,0-2.29.72-2.29,9.41,0,1.58.76,2.15,2.44,2.15,2.96,0,3.34-3.2,3.34-5.49s-.48-6.07-3.49-6.07Z"/>
  </g>
  <g>
    <path class="cls-2" d="m99.83,69.42c0,.24-.05.76.33.76.24,0,1-.76,2.25-1.48,1.24-.76,2.91-1.48,5.02-1.48,5.06,0,9.36,4.25,9.36,10.56,0,8.17-6.12,14.52-14.33,14.52-6.02,0-8.84-3.11-9.6-3.11s-1.53.72-3.11.72c-.67,0-1.43-.19-1.43-.96s.95-2.29.95-8.5v-12.71c0-2.77-3.58-1.53-3.58-4.25,0-3.2,9.27-5.35,13.23-5.35,1.29,0,1.24,1,1.19,2.05l-.29,9.22Zm2.44,5.16c-2.1,0-2.34,1.72-2.34,3.34,0,9.27.53,10.03,2.44,10.03,3.15,0,3.68-3.58,3.68-6.02,0-2.25-.62-7.36-3.77-7.36Z"/>
    <path class="cls-2" d="m132.03,81.31c0,1.91.14,4.87,2.72,4.87,3.44,0,2.96-4.49,2.96-6.78,0-1.58.05-3.63-.19-5.16-.38-2.39-2.72-1.58-2.72-3.58,0-2.82,9.6-3.3,11.42-3.3,1.72,0,2.44,1,2.44,2.68,0,1.53-.1,3.01-.1,4.54v9.6c0,2.87,2.63,1.53,2.63,3.82,0,3.25-8.46,4.16-11.08,4.16-3.68,0-1.24-2.87-3.15-2.87-.53,0-1.29.72-2.44,1.43-1.15.72-2.68,1.43-4.78,1.43-9.08,0-8.31-7.17-8.31-14.33s-3.3-4.11-3.3-7.26,12.04-3.2,12.42-3.2c1.34,0,1.48.62,1.48,1.82v12.14Z"/>
    <path class="cls-2" d="m155.4,77.16c0-4.68-2.96-2.05-2.96-4.97,0-3.77,11.18-4.83,11.61-4.83,1.82,0,1.86.48,2.05,2.1.05.57,0,1.67.81,1.67,1.15,0,1.86-3.77,5.97-3.77,3.2,0,5.3,2.39,5.3,5.54s-2.72,5.73-5.88,5.73-3.97-2.72-5.21-2.72c-1.34,0-1.1,3.2-1.1,4.06,0,1.43.14,3.44.38,5.26.29,2.1,3.92.81,3.92,3.68,0,3.01-4.2,3.25-9.46,3.25-2.2,0-8.7.1-8.7-3.2,0-2.01,2.2-2.01,2.72-3.68.38-1.19.53-3.92.53-5.26v-2.87Z"/>
    <path class="cls-2" d="m191.37,101.33c-8.84,0-12.18-3.34-12.18-6.4,0-2.77,2.63-2.82,2.63-3.54,0-.62-2.58-1.96-2.58-4.06,0-3.39,3.87-4.4,3.87-5.06,0-.57-3.25-2.77-3.25-6.31,0-5.78,7.21-8.46,12.04-8.46,2.44,0,5.73.91,7.41.91,3.63,0,5.45-2.53,6.16-2.53,1.1,0,1.58,1.43,1.58,2.34,0,2.68-2.68,4.59-2.68,5.11,0,.48.14,1,.14,1.48,0,6.45-7.5,8.65-12.76,8.65-.81,0-1.62-.14-2.48-.14-.81,0-1.29.53-1.29,1.29,0,1.48,2.1,1.77,3.2,1.77,1.48,0,7.02-.81,8.93-.81,4.97,0,7.07,2.82,7.07,5.69,0,4.3-4.11,10.08-15.81,10.08Zm.48-4.11c1.58,0,5.16-.24,5.16-2.44,0-1-.96-1.43-1.86-1.43-.72,0-2.58.29-4.11.29-1.1,0-3.68-.38-4.2-.38-.43,0-.57.43-.57.76,0,2.53,3.73,3.2,5.59,3.2Zm.29-26.23c-1.86,0-2.68,1.77-2.68,3.44,0,1.82.48,5.78,2.91,5.78,2.15,0,2.87-1.86,2.87-3.73,0-1.96-.43-5.49-3.11-5.49Z"/>
    <path class="cls-2" d="m220.14,80.64c-.53,0-1.29-.14-1.29.67,0,2.39,3.11,4.4,5.35,4.4,3.58,0,5.35-2.15,6.35-2.15s1.86,1.48,1.86,2.39c0,3.68-6.74,6.35-11.04,6.35-8.6,0-13.04-6.21-13.04-12.37,0-7.36,6.26-12.71,13.42-12.71,8.12,0,11.71,6.26,11.71,9.84,0,3.15-1.43,3.58-2.96,3.58h-10.37Zm4.16-6.02c0-1.72-1.05-3.06-2.82-3.06-1.58,0-2.87,1.62-2.87,3.15,0,1.72,1.62,1.34,2.87,1.34s2.82.29,2.82-1.43Z"/>
    <path class="cls-2" d="m237.86,77.16c0-4.68-2.96-2.05-2.96-4.97,0-3.77,11.18-4.83,11.61-4.83,1.82,0,1.86.48,2.05,2.1.05.57,0,1.67.81,1.67,1.15,0,1.86-3.77,5.97-3.77,3.2,0,5.3,2.39,5.3,5.54s-2.72,5.73-5.88,5.73-3.97-2.72-5.21-2.72c-1.34,0-1.1,3.2-1.1,4.06,0,1.43.14,3.44.38,5.26.29,2.1,3.92.81,3.92,3.68,0,3.01-4.2,3.25-9.46,3.25-2.2,0-8.7.1-8.7-3.2,0-2.01,2.2-2.01,2.72-3.68.38-1.19.53-3.92.53-5.26v-2.87Z"/>
    <path class="cls-2" d="m274.79,67.51c.86.14,1.62.33,1.96.33.48,0,.86-.14,1.29-.33.43-.14.86-.29,1.29-.29,2.2,0,4.4,4.4,4.4,6.35,0,1.29-1.1,2.25-2.34,2.25-2.72,0-4.25-3.77-6.35-3.77-.86,0-1.72.72-1.72,1.62,0,3.06,10.51,3.63,10.51,11.04,0,4.49-4.35,7.6-9.32,7.6-.96,0-2.34-.14-3.54-.33-1.19-.14-2.25-.29-2.53-.29-.33,0-.62.05-.96.1-.29.05-.57.1-.91.1-.96,0-1.43-.14-2.1-.91-1.19-1.34-2.39-4.06-2.39-5.88,0-1.24.43-2.25,1.82-2.25,2.1,0,4.01,4.73,6.69,4.73.96,0,1.86-.48,1.86-1.53,0-2.82-9.36-3.15-9.36-11.04,0-4.78,3.92-7.79,8.84-7.79.96,0,1.96.1,2.87.29Z"/>
    <path class="cls-2" d="m316.17,84.51c0,4.06,2.34,3.06,2.34,4.92,0,2.77-6.12,2.72-7.88,2.72-1.48,0-7.26,0-7.26-2.44,0-1.39,1.34-1.34,1.72-3.77.29-1.53.33-3.2.33-4.78,0-2.39-.05-6.88-3.44-6.88-2.91,0-2.82,2.48-2.82,4.63v5.54c0,3.97,1.91,3.15,1.91,4.87,0,2.77-5.45,2.82-7.26,2.82-6.83,0-8.41-1.43-8.41-2.91,0-1.91,1.86-1.05,2.68-4.16.57-2.25.57-8.55.57-11.18,0-2.15-.14-4.35-.19-6.5-.1-3.39-2.96-2.2-2.96-4.44,0-3.82,12.42-4.83,12.47-4.83,1.43,0,1.53.43,1.53,1.82l-.29,9.08c-.05.91-.1,2.44,1.15,2.44,1.43,0,2.05-4.25,7.41-4.25,8.79,0,8.17,8.27,8.22,9.6l.19,7.69Z"/>
    <path class="cls-2" d="m319.85,80.6c0-8.55,7.5-13.38,15.38-13.38,8.36,0,13.14,6.55,13.14,12.47,0,7.84-8.41,12.61-15.43,12.61s-13.09-4.16-13.09-11.71Zm13.33-7.74c-1.58,0-2.44,1.48-2.34,2.87.19,3.01,1.05,10.37,4.35,10.56,1.82.1,2.2-1.43,2.2-2.96,0-2.15-.96-10.46-4.2-10.46Z"/>
    <path class="cls-2" d="m353.44,82.17c0-5.02-.29-6.12-.53-6.35-.62-.62-3.2,0-3.2-2.72,0-3.25,9.84-5.73,13.38-5.73,1.15,0,1.34.38,1.34,1.43,0,.33.05,1,.53,1,.67,0,3.34-2.58,7.26-2.58,6.26,0,9.6,6.26,9.6,11.85,0,6.4-4.54,13.23-11.51,13.23-2.25,0-4.49-1.19-4.92-1.19-.67,0-.76,1-.76,1.53,0,3.63,2.96,2.48,2.96,4.83,0,2.68-4.35,3.01-6.21,3.01-6.4,0-11.42-2.34-11.42-4.78,0-2.15,1.96-1.34,2.82-3.2.48-1,.67-2.39.67-7.69v-2.63Zm13.09-7.88c-1.72,0-2.29.72-2.29,9.41,0,1.58.76,2.15,2.44,2.15,2.96,0,3.34-3.2,3.34-5.49s-.48-6.07-3.49-6.07Z"/>
  </g>
</svg>